<svg version="1.0" xmlns="http://www.w3.org/2000/svg"
 width="88.000000pt" height="68.000000pt" viewBox="0 0 88.000000 68.000000"
 preserveAspectRatio="xMidYMid meet">

<g transform="translate(0.000000,68.000000) scale(0.100000,-0.100000)"
 fill="currentColor" stroke="none">
<path d="M385 571 c-112 -29 -180 -117 -179 -231 1 -139 97 -235 234 -234 98
1 169 45 216 134 25 47 24 152 0 200 -52 102 -169 158 -271 131z m45 -57 c-6
-14 -10 -35 -10 -47 1 -15 5 -10 15 17 7 21 19 44 26 50 9 8 10 6 5 -9 -6 -16
-5 -18 5 -7 7 6 19 12 26 12 9 0 2 -15 -17 -38 -18 -23 -33 -55 -36 -78 l-5
-39 19 40 c17 37 73 95 91 95 26 0 91 -104 91 -145 0 -13 -4 -14 -22 -4 -27
14 -120 14 -145 0 -17 -10 -17 -10 2 -11 69 -1 162 -59 149 -93 -6 -17 -9 -16
-38 10 -17 16 -38 33 -46 39 -9 5 -8 1 3 -8 10 -10 15 -23 11 -29 -4 -7 -3 -9
4 -5 6 3 18 -4 26 -16 23 -33 19 -47 -5 -18 -17 21 -19 22 -10 3 13 -26 14
-43 2 -43 -5 0 -12 12 -16 27 -8 35 -49 89 -78 104 l-22 12 22 -24 c27 -30 53
-90 53 -124 0 -18 -7 -28 -26 -35 -33 -13 -96 -13 -129 0 l-27 10 27 22 c29
23 64 90 65 123 0 16 -4 14 -22 -12 -26 -37 -112 -88 -133 -79 -29 11 -16 33
23 39 21 4 46 13 57 21 18 13 15 13 -20 1 -46 -16 -95 -19 -95 -6 0 5 6 12 13
14 7 3 5 6 -5 6 -10 1 -18 4 -18 9 0 4 34 7 75 7 40 0 79 5 84 10 7 7 -6 9
-38 7 -55 -4 -121 19 -121 43 0 27 30 89 57 117 l26 27 17 -49 c17 -51 41 -85
71 -101 14 -7 14 -4 -2 28 -19 36 -25 106 -13 137 3 9 15 16 25 16 16 0 17 -4
9 -26z"/>
</g>
</svg>
