<svg version="1.0" xmlns="http://www.w3.org/2000/svg"
 width="88.000000pt" height="68.000000pt" viewBox="0 0 88.000000 68.000000"
 preserveAspectRatio="xMidYMid meet" width="44" height="34">

<g transform="translate(0.000000,68.000000) scale(0.100000,-0.100000)"
 fill="currentColor" stroke="none">
<path d="M385 571 c-112 -29 -180 -117 -179 -231 1 -139 97 -235 234 -234 98
1 169 45 216 134 25 47 24 152 0 200 -52 102 -169 158 -271 131z m18 -77 c-21
-38 -25 -55 -21 -104 7 -94 -28 -89 -51 7 -9 37 -9 36 -10 -21 -1 -52 -3 -57
-17 -45 -12 10 -15 26 -12 65 7 77 60 141 120 143 14 1 13 -6 -9 -45z m184
-16 c29 -27 29 -41 1 -81 l-22 -32 25 23 c29 26 39 28 39 8 0 -21 -93 -101
-147 -127 -25 -12 -69 -24 -97 -27 -46 -5 -48 -6 -22 -13 55 -15 169 18 234
67 38 30 46 27 36 -10 -8 -32 -51 -64 -119 -89 l-50 -18 53 6 c28 3 52 3 52 0
0 -14 -88 -45 -128 -45 -149 -1 -245 150 -182 288 25 56 32 53 13 -5 -18 -58
-6 -98 33 -113 69 -27 201 59 235 154 7 20 15 36 18 36 3 0 15 -10 28 -22z"/>
</g>
</svg>
