<svg id="filter-str-active" version="1.0" xmlns="http://www.w3.org/2000/svg" width="44" height="34" viewBox="0 0 88.000000 68.000000" preserveAspectRatio="xMidYMid meet">
    <g transform="translate(0.000000,68.000000) scale(0.100000,-0.100000)"
    fill="currentColor" stroke="none">
    <path d="M385 571 c-112 -29 -180 -117 -179 -231 1 -139 97 -235 234 -234 98
    1 169 45 216 134 25 47 24 152 0 200 -52 102 -169 158 -271 131z m133 -46
    c104 -44 151 -167 103 -270 -71 -153 -291 -153 -362 0 -19 42 -26 135 -10 135
    14 0 51 -50 51 -68 0 -9 14 -31 31 -49 l32 -32 18 24 c11 13 19 27 19 33 0 5
    11 21 25 36 30 32 32 46 6 46 -21 0 -48 27 -37 37 3 4 12 1 18 -5 7 -7 27 -12
    45 -12 38 0 38 -1 18 -39 -12 -25 -13 -31 0 -41 11 -9 19 -4 40 30 39 62 39
    64 0 99 -28 24 -45 31 -77 31 -38 0 -78 21 -78 41 0 21 109 24 158 4z"/>
    <path d="M533 355 c-6 -18 23 -55 43 -55 24 0 26 22 3 46 -26 28 -37 30 -46 9z"/>
    <path d="M430 305 c-11 -14 -8 -21 20 -50 34 -35 70 -46 70 -22 0 7 -17 30
    -38 50 -35 34 -40 36 -52 22z"/>
    <path d="M503 305 c-6 -18 23 -55 43 -55 24 0 26 22 3 46 -26 28 -37 30 -46 9z"/>
    <path d="M399 254 c-12 -14 -10 -19 14 -40 16 -13 32 -24 38 -24 18 0 9 37
    -14 59 -22 20 -25 20 -38 5z"/>
    </g>
</svg>