
<svg version="1.0" xmlns="http://www.w3.org/2000/svg"
 width="88.000000pt" height="68.000000pt" viewBox="0 0 88.000000 68.000000"
 preserveAspectRatio="xMidYMid meet">

<g transform="translate(0.000000,68.000000) scale(0.100000,-0.100000)"
 fill="currentColor" stroke="none">
<path class="int-svg" d="M385 571 c-112 -29 -180 -117 -179 -231 1 -139 97 -235 234 -234 98
1 169 45 216 134 25 47 24 152 0 200 -52 102 -169 158 -271 131z m133 -46
c168 -71 159 -318 -14 -375 -39 -13 -129 -9 -145 7 -6 6 0 22 16 43 26 35 34
80 13 80 -6 0 -28 -18 -49 -41 -43 -47 -53 -45 -80 15 -33 73 -19 167 34 225
52 56 151 76 225 46z"/>
<path class="int-svg" d="M445 488 c-4 -21 -10 -38 -13 -38 -3 0 -25 12 -50 26 l-45 26 32 -45
31 -46 -37 -10 c-21 -6 -44 -11 -51 -11 -29 0 0 -18 39 -24 l42 -7 -33 -34
-33 -34 48 15 c27 7 52 14 56 14 4 0 9 -28 11 -62 l3 -63 18 53 c10 28 21 52
25 52 3 0 19 -12 35 -27 31 -30 31 -31 12 36 -7 24 -6 24 41 17 l49 -6 -37 26
c-21 15 -38 30 -38 33 0 4 15 16 33 26 l32 20 -42 3 c-24 2 -43 5 -43 7 0 2 4
15 10 29 10 29 0 35 -20 11 -19 -23 -35 -18 -52 18 l-16 32 -7 -37z m54 -55
c12 10 14 9 8 -5 -4 -12 -2 -18 8 -18 8 0 15 -4 15 -10 0 -5 -5 -10 -11 -10
-8 0 -8 -5 1 -15 10 -12 9 -15 -5 -15 -11 0 -15 -5 -11 -16 4 -12 1 -14 -13
-9 -14 4 -21 0 -24 -12 -4 -14 -5 -13 -6 5 -1 19 -5 21 -28 16 -25 -7 -27 -6
-14 9 12 15 10 18 -10 26 l-24 10 23 0 c19 1 22 5 17 22 -6 18 -5 20 14 10 18
-10 21 -9 21 6 0 13 3 14 12 5 9 -9 15 -9 27 1z"/>
</g>
</svg>
